<?xml version="1.0" encoding="UTF-8"?>
<svg id="Layer_1" data-name="Layer 1" xmlns="http://www.w3.org/2000/svg" xmlns:serif="http://www.serif.com/" version="1.1" viewBox="0 0 604.9 100.5">
  <defs>
    <style>
      .cls-1, .cls-2 {
        fill: #4f78ba;
        stroke-width: 0px;
      }

      .cls-2 {
        fill-opacity: .5;
      }
    </style>
  </defs>
  <rect class="cls-1" width="27.4" height="27.6"/>
  <rect class="cls-1" x="35.4" width="27.4" height="27.6"/>
  <rect class="cls-1" x="70.8" width="27.4" height="27.6"/>
  <rect class="cls-1" y="35.7" width="27.4" height="27.6"/>
  <rect class="cls-1" x="35.4" y="35.7" width="27.4" height="27.6"/>
  <rect class="cls-1" x="70.8" y="35.7" width="27.4" height="27.6"/>
  <rect class="cls-1" y="71.4" width="27.4" height="27.6"/>
  <rect class="cls-1" x="35.4" y="71.4" width="27.4" height="27.6"/>
  <rect class="cls-2" x="70.8" y="71.4" width="27.4" height="27.6"/>
  <path class="cls-1" d="M154.3,90c5.8,3,11.5,4.2,16.6,4.2,12.9,0,24.9-7.6,24.9-26.6,0-16.7-9.3-26.3-21.2-26.3s-15.4,4.5-20.3,9.9v38.9ZM154.3,42.7c5.3-4.7,12.6-8.1,20.9-8.1,14,0,27.6,9.6,27.6,32.8s-15.2,33-31.5,33-17.7-2.9-24-6.6V0h7v42.7Z"/>
  <rect class="cls-1" x="215.1" width="6.7" height="99.3"/>
  <path class="cls-1" d="M245.2,74.5c0,15.1,7.4,19.2,14.7,19.2s15.9-5.2,21.8-13.9v-44.1h7v63.6h-7v-12.3c-5.5,7.9-14.4,13.3-24,13.3s-19.5-5.7-19.5-25.1v-39.5h7v38.8Z"/>
  <path class="cls-1" d="M352.9,63.3c.3-11.1-7.4-21.6-20.4-22-12.6-.4-22.6,9-23.4,22h43.9ZM355.8,95.1c-5.5,3-13.3,5.8-22.5,5.4-21.2-.7-32.1-17.4-31.4-35.3.8-20,15.5-30.9,31.2-30.3,17,.4,28.6,14.1,26.3,34.2h-50.7c0,11.8,8.2,24.4,24.8,24.9,7.4.3,14.2-1.9,19.7-4.9l2.5,5.9Z"/>
  <path class="cls-1" d="M382.3,48.2c5.2-7.9,13.5-13.4,23.2-13.4s20.1,9.6,20.1,23.8v40.8h-6.9v-39.3c0-13.8-7-18.6-14.6-18.7-9.2,0-17.4,7.1-21.7,14.3v43.6h-7V0h7v48.1Z"/>
  <path class="cls-1" d="M444.1,67.5c0,14.1,8.1,26.3,23.3,26.3s23.4-12.3,23.4-26.3-8.6-26.1-23.4-26.1-23.3,12-23.3,26.1ZM497.8,67.5c0,21-14.2,32.8-30.4,32.8s-30.4-14.7-30.4-32.8,13.5-32.7,30.4-32.7,30.4,12.1,30.4,32.7Z"/>
  <path class="cls-1" d="M513.8,88.4c5.3,3.5,11.2,5.4,16.8,5.4s14.8-2.8,14.7-9.5c0-5.7-6-10.2-15.7-14-10.7-4.3-20.1-8.3-20.1-18.4s9.5-17,21.9-17,12.5,1.9,17.5,4.6l-2.7,5.6c-4-2.1-9-3.7-14.7-3.7-10.5,0-15.2,5.2-15.2,10.5s7.7,9.4,17.5,13.4c15.2,6,18.5,12.9,18.5,18.7,0,10-9.3,16.2-21.5,16.2s-13.8-2-20.1-5.8l3-6.1Z"/>
  <path class="cls-1" d="M598.4,35.7v6h-20.9v34.8c0,10.2,4.4,16.9,13.5,17.2,3.9.2,8.1-.8,11.9-2.5l2,6.2c-4.2,1.6-9.1,2.9-14,2.8-11.4,0-20.4-7-20.4-23.3v-35.2h-11.3v-6h11.3V14.4h7v21.3h20.9Z"/>
</svg>